<mxfile host="app.diagrams.net" modified="2024-08-26T07:28:49.808Z" agent="Mozilla/5.0 (Windows NT 10.0; Win64; x64) AppleWebKit/537.36 (KHTML, like Gecko) Chrome/127.0.0.0 Safari/537.36 Edg/127.0.0.0" etag="IPNhNEDmgnM7-0iW8BXF" version="24.4.4" type="github">
  <diagram id="C5RBs43oDa-KdzZeNtuy" name="Page-1">
    <mxGraphModel dx="1386" dy="791" grid="1" gridSize="10" guides="1" tooltips="1" connect="1" arrows="1" fold="1" page="1" pageScale="1" pageWidth="827" pageHeight="1169" math="0" shadow="0">
      <root>
        <mxCell id="WIyWlLk6GJQsqaUBKTNV-0" />
        <mxCell id="WIyWlLk6GJQsqaUBKTNV-1" parent="WIyWlLk6GJQsqaUBKTNV-0" />
        <mxCell id="Bv09CK8JwNpCRIKFzj00-0" value="" style="shape=image;verticalLabelPosition=bottom;labelBackgroundColor=default;verticalAlign=top;aspect=fixed;imageAspect=0;image=data:image/png,iVBORw0KGgoAAAANSUhEUgAAA0wAAAFBCAYAAABEnC9AAAAAAXNSR0IArs4c6QAAAARnQU1BAACxjwv8YQUAAAAJcEhZcwAADsMAAA7DAcdvqGQAAHjbSURBVHhe7Z0JgBxF+farZ3Z2N/cByJmQhPtOAuGSGyEBRIKACKIJh3KphEMOBUMABeUWuf4CAQURFQn4cQQEwiEI5AKEEIEkEEgIR+5jr5n+6qnud7e2t2d2Z3aOnpnnB2+6u7r62O6a7nr6rXpLEUIIIYQQQgghhBBCCCGEEEIIIYQQQgghhBBCCCGEEEIIIYQQQgghhBBCCCGEEEIIIYQQQgghhBBCCCGEEEIIIYQQQgghhBBCCCGEEEIIISR3hmlzA/ZdbQDT4DrhA223ebORAOdzoTcbivwt+Hu7y1O+hYFrErxmQcuVbK95Pv9mQgghhBBCqhpUxFEhD6MzMVJqcH4QBsU4RwglHCudYEL6Pt5sqxgVAQpwrhQwJGdi/pQQQgghhJCusqW2D73ZgjNG21RvNpTntL3szYZyqT8lJCcomAghhBBCSDnzW3+ajr9om+fNEpI9FEyEEEIIIeVBsAlcsC+UNEsD0qTPXgez89tN3KTvjWwj64LHsJu6CcHjCJJuY+cNrrPTg+vyQbbXBCAN2wiyj+B+BEkX5LoCyR88Rro+WIQQQgghhFQ1nQUrsCvqwTQIGVTeBTvYANIlv41U9oEIBUxlW5h9TBFLIgiCYkCOI9tACEiABMlr50eafc6Yl/yY2kLC3i/AuqDQCEPOOSjssr0mQPLLensfkmafF9JkPbCvq6QFjyHbCNiXfY0IIYQQQgipWiAS0lWO7Yq8gIq1pNmVc9tEKIRtL9gVeam4S5oNzk8ETRjBYwRFj5yjYB8vHbZHy963LUwykU4wgWyvCQieR7Z/c/C6BkVocPuw+0BKDJvkEUIIIYSUH0O0XaTNCRj666RDKuP7adsCCZ2Ayn2+6GxfIiSe1oa/o1gBJbK9Jvnmz9pGa5Prg/PIFOCClAAKJkIIIYSQ8mOBtoO82S6BCvmD2vbVdhYSugACJeRLNEnQhc38aRAIJQhARN8rFrlck3yD6H63a4NAhHA7UxuiApIIQcFECCGEEFJ+/F0bPBN28zA084LHJBMiWHb3p5kQ74d9DOy/s2Z16YAwgECxRZjd5A9eM4D1xfT2ZHNN8g2uJ8Sv7SUkhBBCCCGkqoEggDfBNhE60kTMNmAvi4CBcLHTpS+MnWYLEszb6TKPfjkyD7MFTfAYsr9gGo4ty9LPx84j2MeFifiy/25sL/sL7tvu7xMkuG/sR7DT5W8A9jb2fPA+BP+e4HmF/c3B5eA+sRzMI2afIyGEEEIIIYRUJRBNtkAVIKRIRGCTPEIIIYQQQooPhBKaKAZBujRPJIQQQgghhJCqJdhMD2Y3JSSEEEIIIYQQQgghhBBCCCGEEEIIIYQQQgghhBBCCCGEEEIIIYQQQgghhBBCCCGEEEJIWXPZ/HcnXDpvzo3+YrfhOEyEEEIIIYSQisJx1ITL5s9x8yGcKJgIIYQQQgghFUk+hJPjTwkhhBBCOuXVT/+5TFce+vuLGcEInB5edaNt2cNeH1wH0q7XC+3zd9zeXnYD1Z2OeXNf7823re+4LQistzLZ+w7fFnh5urM+b9v6C3Za965fd7YFXV9vlq0Moet92ua7tt5eBzKtb583c9ntsF4vZFrffh2W284fZLO+O9sCe71ZZ2Vom/XydNwWBLb36WzbznBdddNVw7Y711/sEvQwEUIIIYQQQqoCeJwunTdn2cT5c4b4SZ1CwUQIIYQQQgipeFxXLU+lUpPiTsPQSUO3W+And0p7XxohhBBCCCGElDGIkqdlTmufJQgl103dXBNrumnS0BHL/eQuQw8TIYQQQgghpOKwPUq/2mKHy3MRS4AeJkIIIYQQQkjFcOn8OePdVGpIrh4lQgghhBBCCCGEEEIIIYQQQgghhBBCCCGEEEIIIYQQQgghhBBCCCkFMmg+p5xyyimnbfOEEEIIqXJYKSCEEEIIIYQQQgghXYYfkwghhBBiYKWAEEIIIYQQQgghhHQZfkwihBBCiIGVAkIIIYQQQgghhBDSZfgxiRBCCCEGVgoIIYQQQgghhBBCSJfhxyRCCCGEGFgpIKRyGKZtPW+WEEIIIYQQQgjYR9tT2vABBPOk+/BjEiGEEEIMrBQQUhkcro2CKc84/jQb4OY7VduuZkmpe7X9xZs17KLtN95sKMu1zdQ2VdubSMgRHGe0toPMksdz2mS/KCir/PlyAK7TW7Ut1XaZtq+0EUIIIYQQ0lVQ/31J277aXkYC6RYQn1nrpe9qw4ZBu02bgIo/bhZElJ0HaVC9yCtpcBtm28YS+cXdCHHxK23YNwzzSPvAnyKtXDhdm1wXzBNCCCHFAu8eQkj5g7ovfs9hdWCpL9t1bzggJN1eJ/V5GPLYSHoYkhcOFljVgQvwhjaIHlykoCAKXswLtdnrbWzhBWHTVdGEYyC/bBc8JsC+cJ7Ik+5mRhGcq1yTcjpvQgghhBASDaQ+adclUe9GvRn1YzgVsB5pwHZkYJ3UrTGVvOIYkTQ4LrA/uy6Oer+ss+v55S6a8DdkRZg4EWECC1byMwkmIF4imN2kLxP28eRGhwHRhJtYbsID17gq1TghhJCSEvaeJoSUH2GCCXVitMISRDgJUmeHU8RGWoYB1E9tQYW6Npbt/ch+sR3y4ZhddYpUNCJgMA3SmWCy1SesM6EQzN/ZDcDxwwQT0nADIdhgaP4W3JesEwP2NrCggEThQDrEH/aH49sgP9bJtlKYAP42e99BMYhrg/3JepxL8HoFzw9/J/42zOO4wfMFnZ0zIYQQQggpH8IEE+p5qPMJ4lWygdBBndDGrj+inoll7FdM9iPHwvZhmqCcCV6nrJE+N7jAYeKlM8GEi2uv76zfDm6C5O3KzcA5Bc9LbiwECQoOFDeWgwUkKM4ACgz+VkmTwgGwL6ShMGEeBQr7FiBusIzjSAHDvmQfWC/iE2YLFzkX7Bv5JR/2Z/99wfNDPpxLuvydnTMhhJDqAe8DQkj5I/Vru54KUAdE/RJ1Rakv2kh9066b2vVjzGM7TIOGeiSQZaJBxRwVa1xUMVS6g3QmmHDj7PWdeTfsvLncDJy3bG/fWEkTBS1IOkyw89sFEWIDabJf/G0oVIKIS/s6iUoX7OtlXwu51rKtnS8oMsPOz84v5wc6O2dCCCGEEFJeoP5n1wMB6nqoT6IuKa2WkCeICCKAj/t2iyekh9X3gXyQRx7ZvlIw1ylmZrPjE22XaPvQLHn8XJtdye8KxQ6bjRDjy7xZNcif2vTxp93hcW0QMfjbDkVCAFwnFEAUrLO1zdHWGXKdt/CnNv38aVfZ0Z/adHbOhBBCKp+wyhMhpPyBQEJdD3X3X2ibpy0dl2rDkD0QWKgT4uO6gGGBjvdm24H9b+fNViQmpHguggkV6zu17aHtdiT4/MifdhVc4GwQsZMOUbVhBlBAdtOGuPR/1waBt7u2fPBHfwru0CbHFJ7RJud/prbXtKFwdUU0jtGGc4bAgtLP9jqno7NzJoQQUj3kMi4jIST6bOJP3/GnQcQ7BCCQ8KH+fm3/hwSLKdrw8V4+/ANMf63NHu/J3l8lkLePSdIOMrhDuylY2MHEZShmNxcLQ5qQwcKajmF/0vRNDDfVdkkC5IFbEusgEiRvMJ+9HyFTfogZu6ki5m1RGOxjBLP/Zvt6Bb11OBa2RX8kuEPT5Qs7v0z77eycCSGEVAd4BxBCyhvU4VC/xe8ZU9Q9kYZl1CFRN0Q9WOqLqFOG1WexLqw+KNuhvoh5TKUuK83+sB7HEOEk2+A4mMKqEqmQ44LY2BX1sItjixtc4M6wLzQsXcXezhMsBFKIRHDJTQzLK+kwIVN+gIIpQRZgwbaeKDy28ENeIZ2wkYILw9+cLh8IO79M+UFn50wIIYQQQqIP6oyoC4pJnQ5iBsuoB6MuiroflsOcFVhnN8ULIoILeey6sBxTDPsRUL+0695hdeiognPPClx0udA2UiHHTbKxK+phB7O9LcFt0yGCB4b5MGQ9zL4htvAQ4WALheDNk3SYgJsclh/7k+uCqeSTAodj2wUH1xLrbaFoXy85P/kqAMM+gWxr5xPCzi9svwDzmc6ZEEJI9YDnPyGEoJ6Zb0GD54s4OlDf7Gq9PzJk04cJAQvQ/wZ/qFT+UdE+Thv6MnW1oo1tIHYkiMFF2rq67VnapN8UziUoGDIx2J8CBEtI56ES7KAWAH8zOsKFcZC2K7Xhb0O/pBnaANp7Ahz7Lm1yzH/7U/vvDgvgIO1OAfYNG2CWuk9n50wIIaR6YB8mQgjqhAj2YPdJqnay/phkezZgEE5hKhHCAunSjlEMHiU7HWIhVwWL7bAv7Af7k3ORZQiy4L4hVuTYOBcswxWJZRi8TSgogt0WE+uwTzmG7EOEI9JxHZBP8tgeMAg7mJwn9msfz/Z+wbBe9i1eMKThnOy/w84XvD84v2Aa8sv96uycCSGEVA94BxBCqg/UK6WOiLpjvr1LAPsXp4HUP8uKbL8ooYIvoQMXaQsLTWjnCQPhvd/0ZvOCfWPTnZOAmwWvja2cw9IE+VtkvxAndvhxhAWHdwbp8jfhfILngWOs0CZ5gX0N5BxsZN9yDrIMwtKC5wZwrYNp9t+S6ZwJIYQQQkjlgw/mA7VdrS2fdXQAgYQWWmi59bQ2tBADaGlWDvVOiD164AkhhBBCDxMhhBBCCCGEEEII6Tr8mEQIIYQQAysFhBBCCCGEEEIIIaTL8GMSIYQQQgysFBBCSBoY9YEQQgghhJD8ww8R0SNb7YN76FAwEUIIIcRUCrxZQkiecBeunOvPklIzqO82mOT0nIv5U0IIIYRULxRLhBDSEeMl5AOSkIix/zmz+tcmmoY4KXeIisWGIM1xnc3NVKn+rqP6Yx44rlqOqf4162lqhes4y1UqtcBx4stVS8uCqTfvtcBkJISQzNDDREj+oYcpQnTHw8SHIyElYvQ5rw5x485wx3GGKye2i66uDNEKaIijnFZBlBdctUCLrNnKTb3puu5sN+YseOa6PWb7awkhhJQ/u2h705slEYKCKULkKJjYh4mQYgGvUX1Ny3ClUgdogbS//vUNz7swyhJ9DlMgopSKTZt6/ahpfjIhpDqhh6k8+ZW2M7W9rm0MEkikoGCKEPQwERJBRp//xgEQSFqQHJWN58hV7nLlOgv0r3MBmtzpWsxy13E/wjon5eplvd5H9unGnP6O6/Z3VGxzNNlzlNs/W1FGAUUIIWXJG9q+0kbBFD0omCIEPUyERIA2L5I6Sv+wxuqfpOl/lA4IH51vtus6syGI9PK0pubaBS/cPKJVEOUDI9zc1BCcT1beLVfdm3KTjz59w55T/BRCSOViKgXeLCkznvKnFEzRg4IpQtDDREiJEJGkf0jjtOgZm0mIuK5Cv6Fp8OKkYmp2KfsRtes/pWJHOY6C0EuL8T6lUo9OvWGPe/0kQggh0SCdYBqmbRNtq7RJ/6b1tG3nzRrsdegH1cebVXO0wWsFZD+LtM1DggXWrdCGvPtoe1kbaYOCKULQw0RIkfGa2yk0tRufTiR5TeecaRAaDcnaKfn2HOWbQ8/7z1jHie+f6W8CWvjdpCePstkeIRUFPUzlS1AwQRQ9oG13bejbNFrbdG1Yv5m257UN0AZ+re0X3qzpD/Vzbcu0HagNQgppx/tpu2m7XdtZ2iCuLtGGdUdom6TNXk88KJgiBD1MWdLQ0LC1nuALizHHcVZqWxiLxT5OpVILm5ubF/Tq1etT5CVE8LxJTRMyeWQ8L1Lq0ZSjphSieV2xkP5XjoqN00+J0KaF8rc2tNTeVK5/JyGEVABBwXS6tju0ra8Nnp/DtT2u7QRtf9EGQfW+tg+1jdJmg/5QEEHwJEEsQViJAJL9yn5kvxBJl2k7Vdt/tT2hjXhQMEUIepi6SFNT0z5aEP1OC6MRWF7Z3NDyVXODm3BiTt+aOtWnpjauhZO5Jk3J5PTaePxh13Ufr6urextppDox4sFR5+jfjBYQHT0vtkiqxHDdXRRPN6Wc1H0MV05I2UIPU/kSFEwQMj/Q9l2z5DWbgzi6SNtvkaDBuge17atNmtGJ1wjrIKq+1Abv0UptwkvapmrDsdAED8vIQ5EUDgVThKCHqQs0Nq670XHiE5Y2rWx+Z9UXibdWL1NrW1pUCg2n9GsipfPA+sQTaqO63mqrXgPV1j37J3snauPNqdS8Gsd5WIut23v06DHf7JBUNPAm1SWaxzuuMy7Mm2Sa27nOvdUmEiCe9EMDwmm8nxTAneam3PvY14kQQopGuj5MEDQ/1oamcltoswUT+MA32e42bX/WBgElYgjiKAhaFEBUSR5bdJH2UDBFCHqYOmHdujXXKyf20w/XLqp5Y8US9WVTUjWl3HZiCVcjpRd0si+evHWDe/RV22jxNLLfBg19amrr9arJ2m6tra2doaekwvCDOExM34/HnabLx6ONzYl7q70Z2qEXvD4hnaDUP58F+td039Tr97jcTyGERBtTKfBmSZkR1ofpVm0QSj/VBu8P7m9QMNleJgR0eFrbltqAiCFp1meD/UuQh3SCSbxaEGrBQBHVBAVThKCHKQPr1q0bGo/H581b86l6bfli9YUWS41GGHUulsy8mXrLo/pvqPYesLHarL63XqMedRzn1kQi8QwWSHmTKYiDvvvLdQG4uVKb3HWXQy54bXjcjZ2Tzuukfzs3Tb1+1Ln+IiGEkPwSFEzwFB2qbQ9tInZQ1QkKJiBepue0IdrdndoAmufhfSf9lWwgtJCWTjCJWAIUTBRMkYEepgw0NDX8saGl6cR/fv5OfElTi2qEZ0nX4EQQ4SoYsWSmbeJIloPr9Vq1Y9/11b5aOG3Tq7/O6z6phdNl9DiVJ5n7J9GblC3wOsVcB+KpQ18n/TOicCIkuuB1Rw9TeRIUTGFN9HB/IZju1mZ7jMTLBIFjCywAITVQ27e0iSBC/6hB2iCsRDCl68OEY1IwUTBFBnqYMtDQ2NC4YN3S2sc//1A1aMVjxJAvgPBLDoohTzTpeX8aXO9t46VvqQXTkV/bXE/7QThdr0XTL7V4WquzkIhj+uI47kT9E4BnKYA7zXWdSQybnTsUToQQUhQgYO73ZtVJ2l7TdqW2M7WdoW2hth21/UYb+iPh466EERcgjNAcLxgOXAQRQFhyAZH14EW6QBuOg3WnaZPxnARUmSiYKJgiAz1MadAipl9zc/PyR5e8p95fs7xV6ATFkp7oaYhYkjRt7cRSYNv919tYfXvDoS1xx1mZcGIX1tXV4QsOiSDiUdIFf6yfZNB3d7lOm51U7rlsdpc/MLZTzInfSOFESOTBK67iP6JWIOJNEuBF+kQbRBNEze+0wfsjIcIR/jvYJwnN667WFhQ8AE3zEE4c+0KzPfFQwTNlN8MOE2IoUxRMFEyRgR6mNDQ0NGwTi8Xeu++Tt9SSxrVG5BjRA5N5/U8mseQtpxdLkq9nPKGO3miIOng9DIat/qXtYjbTiw7p+tlQKBWHTMJJ/4bOffq63TEYLiGEkOIig9zazffyBapOFEwUTJGBHqY0rF27dr+ampoXbvtoplrV0thO8OCvDxdAML0e82a5Y962ZT+ftbxlz37quI2GtGzfZ0CNTv6xFk2IVENKxOhzXh2iamq0UGofzEHfOQqlEpBOOOnf0Wzlpm5mOHJCSgZebRVdJyChXKjtY23BwA75AGWKgomCKTLQw5SGxsbGkY7jzLh74Wz1eeO6EMHTcRlLZt4sB9bpvLY4ahVLJs3bDvlhx208VH17w831nHpg9erVZw8cOBDRZ0iRyBwe3J1GoVRaRp/32njHien701E4pZzUybw3hBBSMBBFT/oeoXldIbxLANUhCiYKpshAD1Mann/++Zq999676bElHzj/Xf2lETX4q1sFkP7PzAeXTZ62vN40s1iSZTvviL7rqR8N2jrVP1G3yEmlftijR49gW2OSZ1oHnFVqIoVS9DFjOYXdK1fd67a0TJp6814L/BRCSGHB66sQdQI0+TpE2+vaqrniHCUQzOFSbeiTFAwzni9QnoRqFk0UTBGCHqYMrGxYM2/Wis+HPvvlR7648X7FED1G/MD0cq5iycz764N54ZHqWZNQpw/eWu07YEMtT51JiUSCA3kWCH8spRs7DqRKoRR1TFQ95dzoL7aif0IMDEFI+YKKOX7XGEA1bHBTQiodCqYIQQ9TBtY0rPvzx+tWnvDAojmeiNFpuYolO5/kCRNLetI6L8vf3HAzdfqgrSGiHtGi6YRYLNaoV5E8gIAOMRWbqAtz+8h3rprtOu59DChQHqC/mVNTg2Z67QNzsH8TIcUAr7FC1AnSDW5KSDVAwRQh6GHKQFNT07mNyZZrr/nw9bgnYHzRow1vh9ZlPW+Ejr9s1vmip3Ve8pnljnlb0/3tgvvcvk9/demwHZt7xmverVHqmB49eshI2CQH0vVT0ndiub7ckzjgbHniRzR8RD+d2kfUYzM9QsoRCiZSzVAwRQh6mDKQSqU2bmlpWfTIkg/UzBVLLIHTJmTsZU/gYNkXQP68tz7dtpZYkvzIG5Jvo/qe6hfDdkwO7dFrWW08fkxtbe2LehXJEjPwrFKT7Uo1hJLjOlPWtdScS6FU/qRvppeaNPX6Pdi0lZD8gtdUIeoE6QQTBlzFgKoAA6rKGEAY32ewN2v4uzb0f8E4QMciQWNHdbPT7f0ArNtdG/Jiv6AQ0eAISQcFU4Tojocp5k8rllgstjjpuo/u3Gd9I2A84RIUMpimE0u+6XmTZuYziyUse/vy9umt90TUJ+vWqp/MmR5/beXS9fXiC42NjSfoKeki8D6MvuCNR7TUf769B8Kdpq/3gU9dP+pkiqXKAE0pn7pulKN/QO2a4iG6nhbMs1AW/CRCSPcp5gfUN7RhQFVwkDb0L4WAAv20XaztN9pGIsECy1iHPAAi6GlvtnU/IowQLhutONDEF/NXaXtQGwZiJYSQroJqfFEfkCWjoaFhrBZOj9w4f6ZaYsKLdxRLQcHTJpYCy8gdzOsvZxN2HMvnDNlWHbPRIL2kflZbW3sdZkg4nTW/Yz+lyiZdMz39M2JQCELyA15NxfAwhXmclmqD8BGxA/H0uDZ8ULQ9QuJ9QmQ37AcfU/bQhtDYAJFo4VHaShvSZPlAbZ9oQ94ntJUaXGuSmUqpn9LDFCHYh6kLrGloWPLS0k+/9hSi5elHlSdaMLVEjq59mXR7HdJDlm1xpP/XU2s/yOnn89LaloN5T9p0iDpr8FaIoHdNIpG4RCeTAGHR7/QVZfO7KiSsmR7KgptKnfz0DXtO8ZMIIdEhKJAQZvxUbXdrg6gR4fOBNns8IIidLX0T4Jk6Xhua6GEsITS5Q2hsAV6m0drkWDKUR6HGGcoVVqIz0J1KbQThvY4Q3enDVPFN8oTaePyu3ftvmKzRf7InWkxFq1W4QACZdG0QN2adnrau95eRJxuxZPbrLwfzYp/3fTJfXfXBO8h3cXNz86/0KuIDr5IWSxBKz9tiSV85Nr+rUuBJXNdcM0D/dFqb6cHjGIvFHxlz/huT/SRCSPbgFVUMIJLgIcLYTBBJGA8oDDShw/g94nWCsIJgkvF8IJaCQDxd5M1mBPvC31usv5kQUr4YgVU1HiYtSPo3NDV++vzST3s+vuQj/ZT0hIsRMyJiZBnrzLRN2ISJo47Lbdu1rgsuY96keeuQDsZuuJn6+Rbbw9N0VSKRuMxPrlrSBXXQ14vR74hh9HmvjVcx58ZgE039wzqXIcgJiQxhHqYH/Olp2hCkIZ0nyPYyoWne77VJMz6sg3g6yyy1B2IK69LtF69e1H9wbhBsxfZA0euQAXqYosHtN93lz7VxxNjRavAQ05WkLKGHqQtoIbI87sQuP3i9Qap/otb89Ua4iOCRZb1GRI4tgvT/rflal0UAGWvbrnVdYNnkM2lt+xSmLPlEXfPhu3q9e2lzc/MkP7nqMF6lNEEdVHNyBDwMFEsEQBQ1NCeG6h9SO2+TE4tNpreJkKyxX0mFBBHt0GwOIsWOaBeGeJkQtAGD34pYAhBE8D5BeNlABPXxZkPBNrd7s637C/NWEVL13HrDnerXv7zWTFetXOWnVh1GYFWNYAK1tbXXNrS0LD5k/cGtYkYsKJaw3EEsQfTIMuaRz58PiqPW/frL3tRLk30G+YcWTb+ZNwei6ZdNTU0T/eSqAR6D+kTzfF0y2wagddWCVCp59FPX7X4gx98hQSCe0TQzqVIjUFb8ZDzexo++4PVlxgtFCOkKxfqiLxHuBAgeET2Y2uIFggahwhExL9h078/aBmiDFwkiCWD6Y222ELP7QIH9tNnDeUB4ITAEIcTizAmnqbPPO93M//qGy9WFvzy3rL1L3cBU2atKMIH6ePySvQdspDbr0btVyOiJFjJt4ii4bIQP8pp0CB5fAJl535DHX2eLoo5iyVtOx8OfLVTXatGkuVyLpqpomtcaKjwWm2w3r9IX6t51LTUj2JmfdMYz1+0xWwunUG8T+sH5SYSQ9GR6NeUKBIz8/jCFd+cVs+QJHXiOZAwliJZbtUkfJQFepmXanjFLbUBMob8SPE9o8ofzf0zb1doA+gTDkwUPFZrz0YtESJb8+4VXVb/+fdW3jj3CT6lKqs/DBOrq6u5rSqWmnz5oe/N09YSMJ4bsZRE8xiCCTDrWB8WSJ5BMmszrBVn2ptpMnsxiSfhbm2i6QoumM01ihQIPQEw5z9teJX3ZZhuvEoM6kCxBmdHl50D9Q2v1NjmOmmC8TV60RUJIOIXyMP1NG4QNpgBCB/2ZsAzxdKc29GVClNiztQXpqw2CR0KH2yB4BAICYf9naEM4cfEurdCGdNhMJBBCus6ypcvVC8++XO1iCZiqe7Fc8JGiubn5QC2Cnnto8YfqmS8/afMcwfSCLZZEBIk4MmmhywFxZG3n5fH2mw2nD9pSnTpoGPpfHZ5IJJ70kysCeJViKjaxnVBiUAeSR0w/JscMWtmK/lly3CZCwsEbKop1AoQPxziFQc9TrsDLhWZ5EiwCkfoO1Zav/XcFBn3IAIM+RIPH/v64OvuU89St99xQMaKpO2Wr6jxMQIuP59c2N//2+I23UJvV9faEDQyixxc4MFssmSZ5rfmw3l725026l7ctH/J4+82WOxd+oJ74fJFqTiX/0tDQsJ2fXPak9Sop90AGdSD5wnibUqmT9a+vtTwZb9P5b8yCYPeTCCEeUaqgoinfLr5JxLt8AW+VtNzAcSCYiimWCCkL/vMKovgrte9BXzfTKsbU4CtFwefEV2tWv/lp49qdr573phE0IpCMyJF5K711WeeAGPJEUXux1JpXlvW/2AbzuXL3Tru3bNmzz/t96up2jcVi6/zksgMR8OoTLZPbCSV6lUiBCSt3wHVTk6Zev8fl/iIh1Q5eU1GoE0AgfejNmmkhvD/wMj3ozZbkb6aHKQP0MEWDHQePUpsPHawef+FhP6X86U7ZikyBXLt27WAtBvDVdzvHMR3/+7uu21/Pr69tjV5erpeX6zyYfqGXZycSiVl63Vo9nxONjY3D9fazHvlsgXpYmxFE2mwRlJVY8tPyKZbARnX16p6d9mjpE695sk+PHt/yk8sK03/EcR9pN2aOq2bryblTrx81zUshpHAcesHrE2LKaRcAwpTBlpajGYGRkEgBQYNoen/XFtZ3qdyhYMoABVPpeePVGerbo09UP7/iZyZaXqWQY9lCNd4pWYHUomeYFizf1oJljJ4fqYUQwoOqZKq5SQuNZMpNJnQFuyblahmiTzXm6KqOE2uJqZjrqLiKx+IJ5E+lUvP0tq/q6SN1dXWP6P1Bt3SZpqamCXpy41UfzFbvrMaYl10TS/qcvXV62eQ3855A8rbJj1gSRvYbqO7YYTcc9wb9d57vJ0cefN3vUdNyoy6eHfqSNLTUTKJXiRQT03fOjU3WT752TfLQdI+D3ZIqB6+rSqmkRh0KpgxQMJWe315xo7rlujvU1H8/qrbfaVs/tfwpGw+TruzXNzc3n+k67nGO6+yVTLUkm9yGZIvbVNuSalItbqMWHZAbnRN3alSNU6dqYrWqLl6vEk49xFOjFk9/1dO/19fXI7xol1i2ds3Tq1Mth1w2d6Za3tLUKopEMHkiyPIc+em2WDICyuTz8mIbrMsnR2ywiZq41Y74O4/Rf98//OTIAq+SLmDoeN86AK2+LrNdNzmJocJJKRl9/muXO06s/VhnrroX/Z78JUIIKRQUTBmgYCo9++xyiFq+bLn678deP6ZKIfIeJi0m4looXaBlxCVuyu3ZmFrjNqTW1Dal8tcdBwKqLt5T1cV6qtpYDy1eUq/oP/EqLSw6jS6nz2/AisaG2R+sWTH4ivff9MWQ5WnScxBAkm6LJS9P4cWScNmWO6hD19voi2Rj47b9+/df6idHCtNnpKZlIjrY+0ke3rhK59KrRKIAvE1xN/ZIO0GPABGuczSbiZIqBK+tSqmkRh0KpgxQMJWWjxcsVF/f+Rvq+6edYAasrSS6U7YKHiWvsbHx5Kamps+0gPn1mpYV/b5qXphY2fJlXsUSSLotam3LSrWs6TNti+Gt2jsWiz2hj/9UKpXCwHVpcRxnWQ8nNnbbnv1azhi8LQSUeXN0EEtiehnrvTy+gDJWWLEEbpg/Vy1tblrPSSRu95MiBbxKPWpaZtliCZXQAo+rJLeDVt5WVNIOduuo53U5LtRgt2F/N608rdKgWCKEqDt+d7eZfmPMgWYqoF8TBAe8T+Dn511ulpFe4ZjnfUEfkFqs3KLFyI/XNK9oXJNcXudJi+IBT1OveP9kIl7XoP/cU+rq6v7qrwqlubl5rBZLjzywaJ76yyIEgQiIJQgpfxlXz/Y2FUMsCfsN/Jq6btvh+njuafpv8kp2iRGvknLc8XZgB31Fpq1rThxdYK+Su3jRIn+WlCMbb7IJJiWrsB163n/GxmLxR/xFg/49FyIgBMtqBVDq8log8PrK9W8qxquvlOT7XtPDlAF6mEoDxl1CKPE/3eUFkNz/4H3UmCMPUSedghgsnudpyeLP1fTXZqmFH3+i9tx7lMmPabmM09SdslWQArly5cr1a2trn0DH6lXJrxLrWlb7a0pD38T6qke8DzxJVycSiZ/7yaEsXbv6kt41tb++bv476rkvP2sVS/A6SbM7vBnaN83z1hXzjXHOkK3Vdzce3FBfW7eD/rtKOoZEWEd6eJX09ZiEcZX8pELCSmiZE4UKqAlQkmjWosk5wE8y5DkgBMtqBVChgqk7VKwAKFDlvaTX692331O//uW1/lIb9z8Sie+vFEwlAoLp008W+0sem262cTsxZLxKgzdrTYe36cY7rlGj9trVzxFtcixbqN7rKm4BaGxsnJZ0W0Yub17SJ+k2+6mlpW9iAy2aemN2ghZzN5vENHyyeuUDX6utP/GC92aot1d5kfPCxJKe6GnxxZLwwC57Jrfs2efxurq6o/ykooNQzboQTQx6ldzm5MlFDNXMSmiZE6UKaFj4cf0Dz1dACJbVCoAepg5QMGVHSa/XsqXL1azpb6qfnnaBWrF8pTrymMPVyT86KTKVXgqm6AKBNGTYYCOupa9TOf193Slbee/D1NTUdL/runutaP48MmIJrGz+Qq1uNjESbtKC7niTmIbNevf93pdNjS9dsfVwtV3vfp4nSZuIJUxLLZbA7z/+IO44zrcaGhq+6ScVDXyNH33BG4+gYiliCV4lfU3ORRM8jmtDyhV4RZMqNUIX6LYy7Kjxoy94fRma7vkphFQalSYASRoGDOyvDjp0fzMoab/+fdWvrp9YNh4CUjrQV+mj+R+3eiIfnzLVBIaoAkw1P6+CSQuRE/XkeytaPq9tcZu8xAixJrlCrUuuwmxGDxPYpHef/VY2N792FURTr37maolYEm9TKcUSeHXZl+q5r5aoJted5CflHQRxCFYSR5/32vj6RPN8/XZtTdeXZrYWSweisskoeKTckYAQuly3NinFhwH0cypgQAhCSkkpX2ekyMDL9Nas/5pmVRBQhHQG+i5hIFvh3y+8qo4+7kh/qaIxH5PyKpgcx/lZY3LN6nxHwMsna1qWoyHihk1NTef6SWkZ3Kfvnl81Nf7319uOUNv26hsQS554KjX3fjJf1cfjI7VYPcVPyiuO4050YrHJ8CjBxpz/xmQs214l101NamipORCVTLMRIRXC1OtHnat/6geinPtJeH5M0KJpFvru+UmEVAL0MFURLz33bzMNRkIjJB0PTH5I7bbHCH9JqReefVl9e/SJpu9ThWOq+3kTTLrCDr/c8NUty01HoaiC8ONrWlYiiMOFflJGtuo3YKcvGxv+9xstmrbRoslrmhcNsQTeW7NS/eOzhQXxMqEvh36HHgBxhM7wCBeOpkn+auNVMh3ir9/jcnqVSKWCMZkamhND9W++dbBlBDiJq9gsDIDrJxFS7kTltUaKwFOP/8tMR+y2i5lWCAjY87xvaAnQOsZeGpAfz/DJ2lrrNmnABzLsc5Y2RFTtLH/F8fKbz7Rruom+S7ByiZDXDfLuYRqedJuXR7EpXpCG5Gp4wzZKpVJb+kkZ2bb/wG0+b2qYf60RTX2MlylK3PPJPFXjOJs2NTVd5Cd1G3iTdAmZ6C9qnAN0kWl7+LjqXniVnr5hz9ZKJCGVCj4ITL1u1NHoo+cnGRwnNpHeJlIh0MNURbz47MsmbHQFNceDmIFQggiCYSzI+f58GBBKyI96DsQPRBPEUJjIwvMdebFPzKM7guQnlU9+PUya7ZpTTQl/PtJIMIpkMrmdmekC2/cbuOWXjY0Lrt9upBrZb6CfGg0+b2pUDyxa4CRd90w/qdtgTKX2ke880DSpwIPQEhJZJCAEvKt+kuVtYt8mEo4JkhPSHzRi0MNUJTz39AsmOh7G2KkQ8LtqHSw/QLvx9XyQ3/og3ArEUFg6xFGYshSvE6ls8uthchxnuxa3Ke4vRho0qEu6LU2u627rJ3WK/vtS2w8YuOUXTY3v3rHDbmrMBhv7a6LBU18sVnHH2by5uflwPyln8GJHPw1/sT2ucy+9SqSaQV+9qdePGtHR26QmjDn/jfn4/fhJpMoRoVRf0/K8Lh/Pq1issyZCpSSyHib0kTjp6FPb2W+vYD01V6b/Z6aZjhwV7hhH6GVYGfVNyTS0CoROUOyM86dhBJva4SKFXyiPqmuaV4Xk3cP0QUzF87m/guHo/+JOTa0WQR/6SV1C50/uPGC9HeatXf3wFVvtpL6/SXTefR+sXa1mrFiqVjY3n+4n5QwCPfizHUClkM2PCLG8TVbfJv1oiXKFmBSJoFDSVg7PzMh6mIbvtrPxhqCTOezr+++lvnn0Yf5aki2PPfyECSm+/U7h34zRLwXrK7hvCp/TJBvMx6S8fVFqbm6+obFl3VnLmhfX+UmRpcapVevVbapSqdQO9fX17/rJWfHO0q9u3Kp3nwkPLf5YXT//PT+1tBy14WbqF1tsrxKJxAZa3H3pJ2dF6KCdGjTFc1xnuX6johneNEQP89ZEAg4GWuaU+0CgMoAzPLCd/DZYViuAdOUVQkmLJIijG8NEEp6juoyUaIy61KMI0OMv5JuCD86JMNg7D9nD9LuRcWCKQaUNXPvu2++p0V8/yoyf8+sbwosDxtu5+be3FfU62+RwzdEiJp3LEXWWAd5sK5mCPKC5dVsoOM87hb5QYU3yAD6YHe3NhlKxgzqXIzn+nvExycmbR0iLj3dr4/V1cafGT4kudbEe+l93XV1d3RwvJXt2GLjeuV80Nfzw+I0Hq99sM1wl8ncpc+aJzxepxmQypcXrSX5S1mhRtDnGnkFzI4RTNl/Qm1uGIkoYxqVBU6SIiaVI8frrr/tzhWXZsmXmWO+826b30x0beZCfFA54m6Zet/uAhpaago2JVokU6/dSDHyxlNGjhH6hWFcK06/7zsKhRdbDBGZNf9NMv/O9b5spyQ146ECmcOIYbwdevDLiXm3pPkSEjbuZaSzOR/2pAMGVrs6DdXzmVz5GYOWtlq/Fx12u6y7sGe/np0QTR785esT7YRil3+n5br0gNu3d9y49OWBUvwFr7txxlNq6Vx9vRYlodlPqpeVfxprd5MF+UtZADMFMBfD6UdNMf42b91rAAA+d86c//UkdNXasmRaSW2+7TZ1w4onqlxMnqm984xtqr733Vtdcc027Y0MgTXn0UTXmsMNMnvfff9+kk8LC30nXKdbvpVj49/5c/VIp1z6e+fai5JV/PYUgZUrte9DXzZRkD7x0t95wp5k/6ND9zTQMDEhqj7dTBuC3BwU4zSx5iJhpHXzcAl6kMMWIvGH5IciCognHwj44/mTlY7RCXt0iWoBc3bOmr2nyFlX612yI82xatWrVr/2kLvPpp5/21KKw3R9XW1v7Qg8nNnz92rq5f9plL/XtjQb5a0rD+2tWqcaUu4e/SIrIyF13VQcccICZFgqIpX/+85/qqSefNHa/rmwOGTJEjRo1qt2xBwwYoEYMH26m6fjoo4/8OUIyU4iyUozfS7HBRyaEn4d3Pkw4YZBveO1LYSmV6uxLeKQ9TAhAsPOIHSspDHZRQaCMfYcfYqLjgX12OUTdf89fzHyQBfM+bjfeTpkADxMEDF56UHtDtaHNYbqPWBA8+EiA5nQQQ9gG03T5IaSQH/uFUSxVD+ZjUt6/KDU2Nj6fdJv3W968JIZBYqNEj3gf1TexPmZ/qoXOLSYxDU1NTfiMtY+r3AP0awTNKwZooWX6Z6VSqbWxGPoIORgq+xW9/Ex9ff3c95cvvWfznr1PfuKLReo3H85R61JJZC8q+wzcQN2w7QhVU1OzXiwWW+onVzpV0y8E3qSjvvUtdfHFF/spmYHAuuqqq9SjU6ao3Xff3U/1PFCXXHKJuuOOO/yU0lLufZiyoOzKKprNvTF9ujr7rLP8FNLV8moiJjrqHJ3RhBNHU2d4783KyqKg/TSk383Pr/iZOnPCaX5qcaiUPkzolxRkw42/pgYPaf+RF8L0P6+8kbZ/UzEo0DUvFezDFCEi0YdJSCQSx8RjiQV9ExsoJwL9eoTeiQFGLLmue0MmsaSF0l6NTY2P6dmXm5ONV65uWnrwlw0LN1qybn7dp6vnqkVr31dfNHzU88t1nwxe3bzshJSbvEELk/e0ULxts7oeV2nxdNS+AzZYff/wvdTu/dfzdlpE/rfa+3qUTCYravhu4rFgwQLVp29ffyl3/vzgg2rFSq+sEJKJG2+qxPp9cejM4xQxIuth+n+PPGmmCPhAcgMeo6AFxRKAWNpz71H+EiFEYwRW3hWN8Wq46lsJp+6zgYmNU7Wxen9N6ehd01/1ivdXKZW6v66u7nw/uR1aKO2mhdLDevaVNU3LD5u3crb677IXEx+snJn4ZM1ctXjth+rzho/VkrULtGj6QC1c8556f8V09eZXzyU+Xv2uakyuPTMej3/oOM7BdSl3397xmmd+v/2u6tRBW3gHKBIYxHZ1S0tzNmNMEQ94XeymR/iyHmyKhGWkpwuiENyHEAzOYC93BWwDAwsXLmy3LKQ7dhD0bYLXCfnTnQvSsC7d34njyLpM+Uhhse857lnw/mM5rKzYSDmQbe19XHzJJWratGmtZS64f9DZ/qV8yXFs7PMH9vmGWb6PXyxEODU2J9AXIqpE9os+AhX06983NAw2PCL4agwL86KQ7PjTXQ9WcjhxQnLBfEwqiAtIi5J3tADZJR5LPDGgdmPVq6Y0gSBqYrWqf2LD5l41A1RLS8ul9bX13/dXtaOxsRE+/je0UDrivaWvqje/fLZm8eoP1NqmFV2yhSvfVTM+f1LNWzFLNbSs+XFNouaFgbV1V+t9nne6Fkz377KX2nfABuZYhSbuOFog1iS0cPvMTyKdgEoUKobb77CD+n+PP66effZZte1225kO6XvutZcRGAB5sIx0NI2zhQa2OeOMM1r3AVC5QzAG5IVAQX7TpE5vj0AMCNyASlxXwFd++dL/wgsvtFsOO3Y6kPehhx4y8/BWYR//fAwOVQ85R5zvORMmmH3ibxBwLXDeuA4zZ840QSXw96B5HykewTKLeZSp0WPGmPUoV7hPWMY9/sG4caZM4/7b4H7ifiMP8iKPlCE055w922uiL2Vulr8M7G1l//JbwfERzAHrcV522Ud6ujKLeewL+7QN28GWLFni5+ze8UtFxIOCRNLD9PGCheqtWf8NrcRDIJ19ynlm3KB/v/Uvde4ZXWuqTDpy+013SXOl1ikhxFAYD5PQp0+fz+tq645MpVKX9a4ZqNar3TSFPkTFAKHN+yTWwzFVbazHJzpp/549e/7KW9seLezO1eLiDwtWvt3wyuJH6j5eNUetaV6Zk32wfJZ6adFfY1+s+6hvMpl8Vu/3Pf33b7NeTeLp67cboa7ceme1aT1CmheO9Wq9YbBc122rWZCMbLXVVmqH7bc38y+//LJatGiRem/OHPWfV19V/fr1M/2FUHk8RFe80P/k9ttvVytWrGhX8Ro5cqTaaeed/SWPvn37qtNPP90IE1TgIEKuuvLK1kAN+HJ/551exKLOePDPfzYGTjrppHbLYcdOx8EHH9y63YgRI8y89IeCwDvttNPUXXfdZdJffeUVNU5XRG/+3e9a/9b999tP9fObBF573XWm0rvLLruo/hmCS5D8Y5fZ+++/38yjb5sE+UC5QvnCPZR7Ce66u21cFZTJM888Uz388MOteVAmBPRZumKSFydAytzYo7wB9SF40P/tCS1wZFuUaexPPiR885vfNFNwiy5DEN74PaFJaaYy+8f77jP7FDv++ONN+qWXXtraD6+7xyehRNLD9OJz6CqsQpuJQSDdes8NZh7Nyz6a/7GZJ9mDvmEQnmKEkFYK52Gyqa+vv6qmpmZY3EncgT5EAxObNPeuGVCQSHp18Z4KfafWrxukesT6LNRJZ9TV1Q2rra190cvRHi2W9tSTG95b+p+G2Z8/W79Wi5582KuLHlWfrvmf05Js/oM+9mcb9+k7Wguno0f1G7D4HyP3VadshgArhWFgjXdd9TWnYOoiqGRus433RW2fffZR3/++54jcfPPN1XgtGCCORu22mxEbQCqNdvMg7AN5bJAmFVjs47ZbbzX7gEGUAIiR7hJ27Fy4XVdAd9GV2DWrV7c2c5JK+QO6UgpwLKno/uyCC8y1QLS+a66GQ5UUC9wHKbMQSiizEBAijBA10RZQmIpIFyTUfO9evcwUeSBKusKll12mjjzySLMPlBNMhw/3hh6CxxL7kmOCq3X5QFnBhwhMsS6szG666abtgpNA/EDQH3DAAe2CTnT3+CSUSHqYnvrnM2YaDCeOpngQSGw+RggpMIX1MNnEYrH5WricrSvx29TEam/XYuar9eo2NR4giKf6eC8Vy2HAWzS5k8h369cOTvZPbAjRNFOv+ok+3mAtVjJ+vndd95Yv1ny8dMaSp+vDPEbdsf8s/if6NW3Y0tJiPn9p4Thlo159NtFX/ec/GrRl6m8jvq6+s/FgfQPy+1Hv4PU2VE2p5MpJkyZhZGrSTfL1NRoVN1TgBAgRVAIBKnxRAM2u3nzrrXZNoZ7QYgjnaZ+70KdPaccdIx5hZRSiHAIKXiR4R9FcDZ5OGwgTeFy+e8IJrU3ZUC4hWjKBDwXYF8Lb22UF6VKmg4SVnzCCYub8870up/jYIBTy+FVO5DxMaHKH/ksI9hAMJ47gBN8/7QR/KTwKHCGE5IHieJhstHD6nxYy59TX91gfwRHiTuLWnvG+i/olvqY2qBukvla/edOA2o0UliGC0JSvV7yfiXDXp2Y9nb6BwvqBiU2SX6sb4kJw6fSmHvFes+Ox+EXJZHKL+tr6XbVQ+r1/yLQ0NzcfoM9ht1cXPzYwzEvUXVvesETN+vxfNSk3dcry5ctb39b63K52U6ktB9f3vPX8Idu4T47aX/1w0Baqf6L7HrdN63qocZsNVQ2p5DVaMKX8ZBJR4M2yEa+ObbYXq9CgEmo39wsaKS/QjPLwI7yv78HmdsLUp54yYh5N2dDHB8KpMw+M9CNCc72wctLVkPedgSZ0b775prr1979vJ3iKdfwqJDIeJoQRx7hB3x59olmGaDpi/2PaiaIXn/13u2Z601+bxSh6hJBCUDwPUxiJROI5LZ5+XFdXv6mex6ejAxwVuzDh1P9frdPjr3VOz5d6Jfq93aum/0Itmt6vr+k9szbW89kaVfdQbU09erv/wHXdnfQ+6mpr60doIXJ9jx495pmdd4FUKnXCVw2Lls5b8aZa07yiIDbr82f1cZKpnj17fsc/rEGfJzxuP25qatp4YG3dFeM2Hbrmyd32V+cP3VZt2yt3j8bJg4aplc1NC9fv2Zvto8oQ6dhuW2dBHPLN22+95c+1B54KospmxEx4lS686CLT9BNN2dJ5WNDsFCID43SJcEIAia4wd254P4d8lBV8LEBz1XN++tPWprBBCnn8MsZrg5gbkfEwbbzpRuqcC89S/5j651a7/Jqfqy23aR91dvhubf3gHpj8kPr6/nv5S4QQkjeK72FKh+M4K7TgeUHbzVpInF5fX398fX2P/WoTtTtrQTW4trZua3iO6uvqv6HXfVcLrAt0PoQI/6+/i1wYtnj1h4mw5nT5shWNX6ovGz7F3xfaaalPnz5L9N8ysVdd3YC440z45tc2WfzHXfZUD4/4ujpPi6eujuO0z4D11d9GfD152Pobr+tTk7jATy5HUCFFbWe8WapwIE7QJEr6bKDSGrRv+h6CYoDmTI8+9lhrp3mbrganqHBQPtHUNfLl85ZbbjH3U/qghQFhIeICZRDCCf2e7rvvvoyeTSmvt91+ewdxgmWM8dUdsA9EvUMwkaC3COsKffwyB20Sn9dmBsrNksh4mND8LjhmECzYLE+A5wn9mYo9qC0hpCoorYep1EDEfLZmQWJdy2pVSOtR0zvuum7GKA/6XJohFgf06Inh4/ce3LP3rw5ff+P5GMfp2VEHJH+3/Uj1iy12UKduNkwd+bVNjUA6adMh6tItd1CTd9qj5YbtRiKU+NMqmdxKi8i/enstW/BGnKytooRTsP8IKnbTXnhB/eQnP/FTvIpo0OABEETIYEycfCKVY4lGdswxx7QLzwxvBSOLtYIv+CifkRZOCDJilzncx+AyAiUExcVxxx3nz4UjZQXRE7E/hC6HNwhgHcLLdzcAyVlnn22m119/vZkK2D/OGRTy+BUARNMj2rIVTpHrw5SJIcMGqyWLPzfzdrQ8QgjJM9HxMJUCLWI+6psY6CRbWlQhbXXjsiSO5R+2U7RwejWRSFy6fq9ew1Kp1LZ9ErUX7tl//bv3HbD+9O9tMuTTn2+xfSME0qmbDlu6/4ANXh3So9ddev/f27hXn8N79er1qb+b7oJwU6UyoWjCCULkH4+gfqFMR3KpgGGKZfDcc8+ZfKiUiZhAxDHMo/KJdffcc49JxzZBL41U7hAOGYZ5NIE68YS2TsuZwLlIaO8pU6aYfcgx0h0b2yDkNMDfZ58TPFuzZs0yYgjR8QD6rqAiiso2mmZtvMkmZpwc7FMilOG4ck1wzODfWSTCyk0xzG7uVFLhFLznuC828BRJmUNfIAgJ3HOAZYyhBRDqHk3wUFawD4SKRxkQod6rd28zxTGw3YsvegFHL7rwQuMBQh8jNB1FWcHYXCjTEPr4TeC3gTIGUM5EbIF0ZRZlHL+rsXqfdrRGmN1UsLvHLwJh5acYZrtgshVOkfEwdYVf33i56eOEMYO+d/LxjJZHCCkU5mNSWX1RyidNTU1/+GjFuyfdPn1CvZ+UdxzHURP3+0eyvqbXT7QQut1P7jZaSPWJxWKr/MVCgJdsLk06CgkGfDxXW9hI+e7iRYv82ewxncsDfXfQPAmVTRuE3Ea0MRn4VUAoZoQytveBvNKcCJU5NI86/LDDTNQ5gHkJX94VgucC5BjB85f0sPOXc0IFFZVlVIxR+bT7uKCiiVDhK1au7HCemfbZHXCNNF19HqECGB4OrXTAfYNBi8LKp023yqqQrswKEAy/+e1vjUiQe4j7irJ72qmnmn5BKAMotxBWuNcAXsZg0AfZDkFK7NDeOMb/+3//z5RpjM0F75T0N5LyZWPvu6tlNgh+a9LMsDvH7y6dlFeIlvZtBaMBYsrfrG2KWcovbqWO3eMP4prvulLFXq98UKBrXip4ryNEjmULH5N0jb5KaW5uPtR13am/e+1s9cnK//mp+WX3TQ9Tx25/HsZE2kgLnHIaFymKgglANKFSiqAfNnmphBYKEUx2hZa0pwIEE8gk6oVIl1XSNcpUMAGIJjxD2wbkasNUCrzZrKFgyg5WojNAwUQKRXfKVqUUyJxY17junXc/f3X7+2Zd7qfkj5pYQp3/9bua+9ev90ivHn29ziHlAy5Ifj7FZg+alQRBRRRfRiGUMB+EgqnMyVIw3aitFIIJFeGwKGQi5CGUwsqnDQVTBdAFwQRRXwpQPu1meQIEEtoSd6WM5gIFU3awEp0BCiZSKHIsW9XtYQLNzc0Huq773GNz7lDT5v3NT80Px+98gRq5ycHLe9b32s5xnM/8ZJKZ4JfZzoSSEMlKKJpDoc8Hwjuj/wjGkxk5ciQH0QwhS8FUKlAZtQeEzkYoCRRMFUCEyyv606FvnZCNUKKHKQQKpuJDwUQKRXfKVtUGfQCJRAJfAS/71nZnqIOHnahSSTcvdvxOF6g9Bh2m4k7NaRRLOSEVUUQXhLerq5XRSDFr9mzTvwLeJQwaetfdd6tFixf7a0kZg/KIpncon52JeUJKAYQSyujR2rpaRiulgkoIIfnEBMThA1LT1NQ0QU9unPP5G+q59/+i5n7uRZDKlt0GfUMdvNV3k5v0HapisfjRWpB54cRIV4GHCfci20oov9qXOWXiYUL5xBf87jRrYlmtACJcXtGkGc1Vcymj9DCFQA9T8aGHiRSK7pStSimQ3aa5ufng1Y0rruhV23fv/y5+Vf3rf39RH3z5pr82MyM3O0B9Y+sTkoMHbBNf27Tq4R6J3pd3c1Bdkh2shJY5ZSKY8gHLagVQReW1q1AwZQcr0RmgYCKFIseyxT5MYWjhNGbluqW/6lM/YOTiFfOTH375dnzB0jlqTeMKtaZppYo5cdWrrq/qUzdQDVt/B7X1BiOa+vfcoHZlw9In+9QN+IUWSt7AH6SYsBJa5lAwkXKiQssrPUwhUDAVHwomUii6U7Yq7YGfNxoaGo5wHGffpmTjwYl4YgctlHr4qwwpN7lqbePqt3vX98PAOk/X1tZ6o52SUsBKaJlDwUTKCXqYOmDa+Fcw+b7XlX698kGl/L54r6NHtmWLHqZsSKVSdevWrVtfT1t69+79pRZTSX8VKT2shJY5FEyknKCHiVQSqbnjfhbb5r5r/UVCOpD6+NgescF/X+cvViVV93B0Xbd/Q0ND/1gs1l+Ln/5a+JgxKzDFOpnHFOh8/fzZDujtV/izBr39cr2t6WiLeRjm9T6W67zLe/TosQDLEQd/e64d2ksFK6FlDgUTKSfoYSodqf+NP8R1nTHxbSaf7yeRbtDy3vipMcc5NOWqi2q2nfxbP5mQVtz54+pTTbHHHTd1b2zb+/7kJ1cTleVhgthpamoaoqcYK2VIPB7fvCXZ9DVXOcOU4w5w3Nhm8Vi8l5e7I83JphZMk25TqjnVbLxHrpuKYyq0pJpS/qyqidW2C8leG68z07hTG0vEa2vMQhpSqeRq/apdmXJT/62JJRbpc/7IS08hFOyCEgsrGWsG5zAbCRqJfiGjwyM9SqKKldAyh4KJlBP0MJUGI5ZSzpO65hLXJ3sDRVP3ELEkN56iiQQRsaRLyN6OcuuVm/pBlYqm8nzgQxw1NDQMj8ViB2hRc7DruFvGnZqNsA7CB6KnMdkQX9eySttKtbp5pdkO883JRtXiNqkmfwqQVigSWkjVOLWqZ00fM5+I1Zt0LPdM9FE9avqqmIo19Krtl6qL9+xpVmpSbnJRzIm/rkXUC/rvna1FlIiVYoCBDxE+OR0QSxjfo5jnlAlWQsscCiZSTtDDVHxsseQnQeFRNOVIUCxRNJEgrZ4lpUboxbYR96tPNJmfR1k98NetWzfEibkXuq4aF4/V9NRCJ/lVw6L4isYv1JfrPjECaG3LqoIKoEKzXv0mRlj1q91ArddjU7W+NpB0Wz6LqfiddXV1GMi10KBZHqL9wdsUBsZJwqCIUYGV0DKHgomUE/QwFZcwsSRQNGWPFkuvarG0Z/CGUzQRIa1YEqrQ01RWD/wvVy+aU+PUbb1w1ZzYZ2vnqRWNX/prKhuIqPV7bKa2Gbi7fpC13F5f1/Msf1UhgYcJnqYwhmqLUn8sPOdJ+VNWz6McYVmtHKqhvJYcr8+SgjfEXG89b8Ak5t8BXcGnaOoiyTnjr3BizmX+YloomqqXtmZ4an/9E4vjNxfqXqke0YTHTfl4mNAMb8W6pf9b27xyg7lLX1NfNVTPV1p4nPom1lM7rr9fsi7e4/G+PQcc5a8qNPAyYeT4ME7WhtHkCSGElD+mUuDNRgOIJZVSF2Jen9wQrZm2NCs0OFldMVinT3ienlvsOs5bFE2ZceeePMyf1XXd5I4qFn/UX2zDUQc4rlroLylnm8m4vqRKgFhSTTHTkkn/xjbQkxO1YKq31YL3AcPr455Mpd6u2e6+B8yKCqdsBBNAk7ykavlbbbxuNyx/tma+kuZ4aIq3Tlu5A3GE/k09tKFZ3ka9hiV71vR1Y06s2VHOjLq6+iMlEl8RgFjKNBAvfjDoy1QO0f8IIYSUKS3vjb8o5jjX+IsimObFt713C5NAssKdM25XNxab7i+2oiuFW1AkESE59+Sl+sc2wBZMqZQ6vWa7yf/nL1YD5mNSWQkmobGxcbjrugfEYrH9k6nkIXb0u3Utq1u0iKppTjWotc2rjJBa2+xF/8Y8+jmVoo8ThBCAGAIQRAj4UBurMxH2+tSu31IX79lcH+9Vk4jXJpCnxW2e67hqRsypeaa2tnZKEYWSzSPaxmqDKIJXCc30gn2b0J8J/ZoIIYSUJ6ZS4M1GDwqm/ELBRLoCBVMbZSmYwmhoaBirBQWCFcBtv3lLqmVbfYOHSPS8IF40veYWV7k1WkClmlINsZZUkwkHDrEVRK/z5zxqYrX+XBuIgKfTTXjy2lh9ynFiyUQsEY87tY6IIBuEF085qU8dFfsg7sS/QHhxRMTT579AC6QFJRJIQXBNl2mDJ2kKEjQ3apvgzbZCbxMhhJCCQMGUXyiYSFegYDKUr4cpF9CcD4PVakFivCMirjAPMEAt+kn5i/2TbtIIHMdVZuDalBZWmAox5bS4jmoduFYLnmY9MQJHhA4GttX7NIPZYgqTQWzr6+tbB7ktA9A0T8ZkEpAG71PQ2zRJWzEi+RFCoguCxrCPY3lBD1MVQcFEugIFUxtVI5hIwYA4mujNtgJxheZ7QZFFCKl88BEFfR/xDBCvNCHdgoIpv1Awka5AwWQwH5Ni3jwhOQPBhDj9tjiSYBFoukcIqS7O0QZvffBDCok2RoOQysV968QBrdbi9vWT2+G2tPSz8/nJhFQzRi7Sw0TyCfo1BUUSvU2EVA/iXZLmzXbfR0KyomXu+HFaxpl+yI6DMWGcw8wKDdSd67pL9aR1rKB4nXuzM/S+jp2QSSvJOeNvcGJO2oHnzad0b+6K2Db38qNHFZJ8b/ydMccZ4DpqQ10e9lQpVWt7mPTsDD0xXkjXcf8Q2/reZzBfwZifBQUTyTfwLkE0HWCW2kAUvbQPaUJIRRAMCIMPJfBAk+jTVleOEC1zx/0spmIdBlC1Tjal56fFalNHUCx1jeTck/+nJ1th3r7hck3dlHtlfLt7f2kSSVWSfO/kB7RCOEGXBwc/MFELpnzAXK2VYu7oKhBLrbBJHsk3qCAdqC0ojlCJwpdnhCgnhFQe8C4h2IMNPqDwN18e2HXnyFCzzX3XplTKH7wWVTUP72TdVRRL2RPfZvLW+lLOlMovwNQsUywRTXzbyd/ToujBlNZOtmvFiCWkVZdYMj8TCiZSKOBRQvtnuzmORNZj3yZCKg/puxSEzXrKA6k7Rw4RTY6u0reJJogl5w2KpdzQFeJddYW4VTRRLJEgEE26cDwEgeQnoaxoAeUeVk2eJY0lGQkpLPjqjGeybRjbKfg1mhBSnsC7hN908HcuRi8T6TZonpeae7KbfG98Q3Luyc+688fV+6tIjiTfO3mGuaZzxl/hJxHSDjTP05bSv7mW1P/GH+InVxN4hxFSNPDlebK2YEUKaWFfpQkh5QO8xsHftm1ojkuiDe5T5IFooljKL6m54zF+IiFpgWiqUrFESMmAV2m+NrsyRW8TIeUNPnrAyxT0NKEZrqQTkhdSHx/bw58lhJBCg3cZ2+WRkgHPUlAkTdOGEOQLzBIhpByBYBKvMfoxLvdmScRBpSCXOoGpTFQ4+a4rVcM16y6VUj/lvY4eOZUtCiZSSiQIRPDrM0TTvd4sIaTMoGCqLtz/rl7pz1YeO/Y247vmXTBV8jXrLgW65qWC9zpC5Fi2zMckRskjpQQhyIdqQ0Q9G3if0OeBzXgIIaQ48Es4IYR0xAgsCiYSBTBmEwa3tJviwfuEvk72IJiEEEIKA1ucEEJIR8zHJAomEhXE2xSM1oPoW4ywRQghhYUeJkII6Qg9TCSSXK4N3iYIKAHBIAgh5QH6LImR8oEeJkII6Qg9TCSyQCxBNKGpHprpcYwIQsoHeIoR7IEBH8oLepgIIaQj9DCRyINgEBBOrHQRQkhhoYeJEEI6Qg8TKQsolgghpPDQw0QIIR2hh4kQQgghBnqYCCGkI0X3MOGAtGhZpRD2t9HKz6qJsL+fVl5WaZTsb1q+dKl68u9/V6ePPVrtvdlgM7gk7IJxJ6uZr76q5r79trrnxrbh+pAmeTqzmydd4W9FCCE5YT4mFfOLEkc7jhB4kWgq5Yuiu3jRIn+WlCMbb7IJJtX0hRuVU37RL194/9ro1rv9xalPq4tPPU0NGjZUjf/pT9ReBx2k+g8caETUq889p66ccJ5auXy5+uMzU9XIvfYy20AEvfLss+rsX/xC7Tf6UPXJ/AVqzE47qzHHHKOuuw/jniuT9p1991PX3H2XyZMrBXpXsj6UgUqrn/BeR4ccy5Z53rNJHiGEEEKK7mGC8DnrmGPVYcceqx568QUzhVgCmGL59397yCwP22YbMwUL581Xd055pFUIvT1jupnuvt++Zgo2GzpE7X3wwd0SS4QQojECi4KJEEIIIUX9ov/Xu+9Rf7j2OnX8aaepy266wU/tCLxKO4wc0Sqk4HmCMJJl8Ow/HzfTvQ86yEwFeK0IIaSbmI9JFEyEEEIIKZqHCc3lrjhngho0dGhGsSTsOHJXf87zPH3n1FP8JQ80z8O+4FWyOWfiL/05QgjJGXqYCCGEEGIomodp8s2/M9OfTrzMTDsjk6hCAAj0cRpz7DF+CiGE5BV6mAghhBBiKJqHCRHxAAI8dJeXnn7GTEfsuaeZEkJInjEfk4rZZpmRQiIEo+SRKMEoeaTM4P1rI6t3OzxCPzhktOmXhEAPQdBHaZ/B7ZvWATsCns3x++2v3pk5SxWqflHOUfJwLefNnatm/+c1s9y7b1/TzwtNF9EsEkgzRtwXydcZX//GwWqbnXbyl/IPo+SRQsEoeYQQQgjpDkXzMAE7aIMN0lHBvPbee8xy3/791cOv/jtULKHSD7EEMdUZGOMJlaXDdtrFT6lcIJQQjv3wnYer31x0sZ+q1Ny3/2tCrWPd+ePG+akejz/0N3XDZb9U785+0yx/+tHHZvm1F9pELeaRRkiVYQQWBRMhhBBCivJFv1fv3maKSn0mVq3wvsof/8PT0nozwsKJhwGBsNmQoUaIHXfKye0Gwa004CmCUPrvzBlq8pOPGy/eKedOMIa+YE+8NdusQ2h2O0gGAmeIMEXeTTcfbNK/d+aZrdv/5p67TXCNQnqXCIkg5mMSBRMhhBBCiuJhQmUblW54hqRZWBivv/iSmY759tFmGka6cOI2EBAP3XVXa+CIjQdtZrwnlQgGAUZzR4RTxzhVYcIGHjwM+IsxqoS5b79tAnDY+ac+8oiZ7jxqNzMF2JbBNUgVQg8TIYQQQgxF6zNyyXXXmulNl08y0yDwPj318MMZvRmSB32hguHEbe78zW/NWE+VDsTnxaeeZq4ZxFK6Jo+gd98+avvh7Zsm2gE4cG0haNFXyd4PjpFJwBJSodDDRAghhBBD0fow7Tf6UHXelVcYwXPBuJONh8PmrTe8pnbpvBmo0N9yxVVmftDQYWaajn//61l1xPHH+UtKTX/5FX+uskCodoRXh6cok1gCX9toY3Xo2LH+kuf1s7d59bnnzPTgI480UwHCNJ2AJaSCoYeJEEIIIYaieZgA+sT88Zmpqt+AAWrCiSeZgAxiD9x+u/rhzy5Q437yYz93G+h/hCh6aGYHILqwTVi/JDTHAyP32stMAfrq7LbP3v5SZQABieuBABmHHXusn5oeCJ9MXjkRlbvsPspMCalyzMekYj4gGVoxQuAFoynqC7KAVFxY8WXLlqk777xTvfnWW6pf375qzGGHqbFHHeWvrTwYVpyUGZV4/3L9myL7bodgQpM8NFGTZfTxeerttzIKBpsCvSvzes0wrtXPxp+SNvQ6mtI9PWWKv9TG8D33aCcmhb03G2yE7JNvexHzik2O17y/tgna8KLEzZ2m7T5tHf9wDzs/5mdrO1dbuo51B2i7URv2vVwb9ov8ncG6b4Tozu+ZHiZCIsY7776rDj/iCDVq1Ch12qmnqgUffaTOPPNM9frrr/s5CCEk71SaAOwAQmejP1NXxVK5sHjhJ2Ya7JckrFm9ykz/ds9kExYctmrlytaIhTZoHommfXZQiDIBYmaituHaIIDQ5hBKua3tYRtYD2Up+VEgkG++vxxE9iX7Rn6IrVn+MqlsjIeJgomQiHHL736ndtl5Z3WwfmHBnnrySfXolClq991393MQQkjeMZWCSgJ9dT7+cJ6ZD0bLqybQ7whNIKVPGPqPnTPxl6H9kdDnC+x/2BgzzQTGtErXHLLIQNCM92Y70NHl5omdMCEFPHdkeyDGwoQRBBTWkcrGfEyiYCJRo7I+/eXAo489pnbSgsmGYikSyJdFQiqRivMwwZOEcZdQqZemeJXIlttvb6Yy6Gw60H8L2AEfgoSFE08Hmuwhkl6m/RWJTO3V8dwOip1MoxcHn/HigUpHyf94UnDoYSKRAw81uMSlnTAhUYLlk1QyFedhAvCsoA8JrNKa4gmIOohw4giAkW5sK6QjVHimMOySB32hOou0B5AfHrwIXFf0KcqGbE44232TyoMeJhJZ4C6vuIopAjlcc8016oQTT1QXX3KJ+tOf/qSmPPqov1aZdBi4//772y1jW+TH9uDZZ59VZ5xxhjH0eQLB/WOZFIRyLJ/raTtd21O+YT7IPtpu02bnwXY2kgdfaLHuV9qQ90JtwuHa/qIN6ZgP47vaJA/2EYwNbR8H+0A+bCPY22NqryO5UfF9mCqZX/3fHWZ6/rhxJmpekFf8UOHH6PXpkMAQBx95hJl2xtszpkelr9ML/jQMCJ6g6EFAiHQg+IMNFGj6EZYz74tUBuZjUjEfkIwUEiE6iRSCaDBBF3YxwDHD2hujgfTN2tI9tMoiSh4i3Q0fPlx9++ij1RvTp6tbbrlF/eQnP1Fnn3WWWS9BHY4aO1aN0y815APomIt+TWiqd8ABB5j+TcK99yEIkFJTn3pKXX311WrIkCFqwYIFJu9R3/qWuuMO7yUadbKMkoe26qUqn+gkHKSz8hkGHsDFev5CdDyvDWob8YIRU/k32qZqk44KECWPa7tIm53ndm1eAfUE1NXaBmg7Q9uB2mZqw4iXo7Vh24+1oYkK0i/Whrxo0mK3FYIQwufr32vbzF8GaAOEDif2cX6t7XhtW2iT84XAOlMbzgu93RF7GnlO0AbxVAyKef+KRa5/U0W/27sTVSsDBblmCNiAEO0rli0z4cU33Xywv8Zrardw3nz115de7OARQpQ9hBKXUO3wQo3W7x80tcvkPbpywnkmRHtXQplnQ47XHM841F2CYHTky73ZVqS1QNh75GRt93qzreCZFta3Cc/8EdoyeaFY940Q3fk9F/OBz0ITITopNOkiy5SadBXTyAsmeIG+8Y1vKPs84TFauWpVq2ASIB4uvfTS0HQIor88+KDafPPNTdqtt92mrrrqKiOwLrrwQjVgAOqYnjh788032x0vymQpmNK9GEtNNsKpmBXuN3yzCxQ+QaOwyDlAhPxcm31O2AZ5tjRLHvAkQUhBHP0WCRp4mt73ZtW3tL3szbYTYZIXniAIXrtHueR7SJt4iuQ4ItiQBy8Q7Bvn9ZU22QeO/6U2W9wVmkoUTLlCwZQ9Bb1mEE5vvv6GWr3SO0bvvn3VlttvFxpCHEAwSaQ9m84EE4I+FCL0eDeuOT64SvAHiBiIpXQRKfAhBx/ApK6D/AgTHhRLgoQVx3bIC08UxFVnz/vI/j7gicQgxVPuf0C9PX2GiY4I0CTzxDN+ZD7WIggImrUCCcvfFTCOGgKLRI0cy5Z53rNJHikn8GCLopDrlN69epkpBI7wzW9+05/rOhBMIpbAqN28jrmDBg1qFUvAnidFo7POwaUAQgOF5M9mqQ2k4XwFhA6TZWm+B68OLAxvZEsPiBe4R1HoRCyBsFoCKjMQYGhKJ4ZKDTjUn9rIeT+hTfYNb5IIIzTlO8+b7dCsj2QHKgWkAkD0u++ceoqp6MIwn04sAXiIJK9tmcQSKs+Dt4jcTw4CBpVhPItg6cQSgOBBMw7kH+pbOrEE0PQO3iTJDw97Nq0KIsWLU59Wh+88XN37u1vU2JO+p554a7bp5/fyxwtMk8wfH3e8Omavr5uxuoSXnn7GeB9ve/jvJq8EUYHAwrKkYQDlEXvuadZVCEZgUTCRMNAeGI2ZS2Fh4KGELz94WGV6AEYWiJxzfvpT4w3aa++9Td8liJpvHtG1tuKkHWiHiHJQbEv3MsWLFC9PWNTas+/oT4Og6Zv9aRiiB5+Y4dl5TRva8nyoLd/g8+TT2q6yDL/tfbXBO9UVvDjRXlM+7AvNAEn3yfarK6liZv/nNbXH/vv7S5EjUxO5MFDHyGabbPcfKW6edIU665hjjVB+6MUXzFSCfGCK5d//DQ5/pYZts42ZAjTpxCDQCDIC0IcN7L4fHt8eENno1yZ5KgTzMYmCiYSByiG+vBTb8HXIJiiUyvohdfHFF5vxlOAlwkC0EE6r16zx15IsgHBBuSi2iSdEiLJQyhb0c4JQwidlfFL8hTaIqEKAaCTwFoVZV0CzPbypIfjgrbpTG+k+9DCRLoNBcCMQTpxkyV/vvkf94drrzADOmcYkg0cS3iQRUmi+B2FkR0989p9oSa3U3gehG2sbg4bBAVdR0MNEIktFCSUbjKf04J//bIQTotgdc4w3kCApK8pJKK3wpzv4Uxs0vZPxSNBfCKCpW6GEEoDXCk3qwkDzwc7AOcOzhOAOFEr5hR4m0ino74R+IAvnz1djdto5bRhzEj1wr644Z4IJQd+VAZx3HLmrP+d5ntC00wbjemFfwaabUey71E3oYSKRpCKFEoI+SBQ8AOGEEOArVqxol85Q4JEG5bHcPErP+FNEnYPYsEHfH+npjaZyH3izBQVN6NAvqq0znwfOrSud+rbThr4JrKXln5w9TKhAV6qR9qC5lvRXgWXq50SixeSbf2emP514mZl2RiZRhT5sCBIx5tiq+OhLDxOJHKiQVpRQEtasXq1+OXGi+uijj/wUpT799FPVr18/I56EmTMRjVmpf/7zn2YqiJAKCqpVq1b5c+HYxyPdBuWy3Jreob8PosdBZCDAArw4MsYREG8SPD8QTVgH8YK+TFIwsSzen37+NFiTDIoxG7tGdZ02FGKEBYdAw3EQoQ9R9myPUbrjSNjHH2lDj3OYLb7gMROvGcmOXD1M2K7SjZCyB95BsFegCV0uIAAEqLDgDumgh4mQYoIw33vutZcZWBZhvzE47cMPP+yv9QauPfvHGFLGy4s88EIhQMThfnAISYfHCuskP4JJYHukY/20aV69fvSYMe0GxyVVCT4nQjQhMh4anb+kDaIF/ZSES/0p1kG8IAoevEEAQgv9mzBF6HFwvzYIHYgThPn2wjV6Igh9jLDuMSRoII6QB0DAwUMHgQZPE5oCYv1J2iQIBfLKcXC+2JcgAhDbYh/omSwiDIIP0f3yH+e4OmAfJkIqFPEI2f2SbNBHKczDesG4YNdyDzTHAxUW3CEd5qNJMb+ccBymCIEfgqZSvpxFfhwm8QwtWrzYeJuA7VkCdtM8AeMgICT5kiVL/BSPrbbaqt2+BKS//74MieOx4YYbtgtFHkWyHIepEkDltNh/L7wxuNBztIX1U5L1EnwBXiM0gZNleJ9s4N5Ekz7kscGPsY9vNsGgDhBbyBNMDztOUASJF0nSce7YV7HEUinuH6kcWB/KQKXVT6Jwr2UMpa9/42AT6S4d8EL9bPwpJjT45CcfNyHqg6AvFPqvIZz4dfdh6KvyIceyZZ73xSyQZfeAQKH4/LPFZh6hFUWVI91ut4uC2FUyjYVQTCiYSJSgYCJlRiXeP5bJ4kHBlAEKpvyDwYwxrhI8TAglng5E0UNgiEwDz4qo+uXNN3UIBBF1ulO2ilkgy+IBATH08B//qB76w12q34ABrQOzYbRjhGHc/7Ax6oUnn2rtDAc35j6DPfEkrk4ZMRlKHiDPOzNndarsiwkFE4kSFEykzOD9I92BgikDFEyF4bCddjHRDTG4bLpgHWiC99TDD6uHX/13qHcJSJ5M+4kqOZYt87xnHyYLqObv7LufenfWLOOKfPLtN43AgWH0Y4DBvjbdHGM6erz63HNGKKHgQLWLIEKoRdkW6RBbBx95pFlHCCGERAxUCgghFcol111rpjddHhxS0AMf9yGEUH9NJ5YkD+q96cQSWl1BmECggSsnnGeWs2mNFTGMwKJg8sENhYsRITMhcoKFBZ4jeJVQkIbviXEdPf73zrsmvxQcuD3hXcJIxzYQWcHBvQghhJCIQI8ZIRUMAjScd+UVRvDAS4T6qs1bb2A8cJU2VDjE0i1XXGXmBw31Wl+F8bWNNlZ/fGaqOu6Uk03derd99jZOgyWffurnKDvMxyQKJg08Sw/ddVenIx8DNNGz+yFtvcP27SKOoOkeQNM9m959+5ad65IQQkjVQA8TIRXOKedOMGIGXU4mnHiS8fyIPXD77abv0rifeNF3be658SbT/QR1ZQDRhW2QHgR13ccf+puZh1iCIwJR9TbcdFOTVoaYj0nF/KIUyTa7UMyH7zzczD/x1uzQcIs26BCXqZPb8fvtb/oroQlfZ/sqJSjomkr5osg+TGUO+zCRMoP3r0TMmj59wojddutYSysv2IcpA5VWP6nGe43meHAwoAWWRNWLwnXIsWyZ533Ve5iefmSKaUJ3/A9P65LAySSW7OAOURZLhBBCSIDIe5hmzZrV33GciVo0jfeTCCERA32VEFwCYgk8PWWKacFVxhiBVfWC6eH77jPTfQ89xEyDoI0nbn7QwkAACMDgDoQQQsqM6H/RT6UmKMeBaLrRTyGERIzZ/3nN9JUSXnvhBXXE8cf5S2WJ+ZhU9YIJHiGQbnykv949Wf3iR2eYAb9gPz7uePXnO/7PX9ue6S9jcHyldtl9lJkSQgghZUKkPUzGu6TUOWZBiyZ6mQiJJn+7Z3K74Gjo24/6M+IFlCnmY1IxvyhFsh2n356x07aVki9TbPq9NxtsOtIhHHnUYR8mEiXYh4mUGbx/RWbWjBmXozmev6jvgLt8+K67DvCXyg32YcoA+zCRQsE+TN0AYcIBOqWlQ5rgjTnmmLRiKV04cUIIIaQMiKyHqZ13SaCXiRBSHIzAKqaCj6TKRkjEGy77pWlviXCLYdw86Qr1h2uvU9fee48JjxiG5Lnt4b+bWPdRhx4mEiXoYSJlBu9fEengXRLK18sUWXEaISqmfkIPU3Sgh6kbfHvcD4yX6a7rb+gwiJfw1N8fNtO9Mgw8izx9+/cvC7FECCGEBIhkJT7UuySUr5cJFTZaZiMkKpjyWMxCGVmVjeZ4548bpxbOm2/Ci9sR81avXKXOOuZY0xzvuvsm+6keCCM+b+5cEwQCg3hBMF1z911qw002Ttt0LypUmofJn5Lypppekiyz5Q8rdUUgrXdJKO++TKTyoYcpQnTHw0TBZPHi1KfVrP/8R707y4ucB7YfMUJtvcP2xrsUHFsJHik05wuCbc6Z2DE9SlSYYCKEENI9TKXAm40ms2fMmKWrLWakeddxRmhmmxWERBcKpgjRnbovBVOVQsFECCGknKBgImUI674Rojsepqrvw0QIIYQQNhOtVmZNnx4e8YoQAozAomAihBBCCFscVCFaLI1FH7FZs2YN8ZMqDXwI+K43S0hOmI9JFEyEEEIIoYepCjEBNRynv+O66QNrlC8s0yQf0MNECCGEEAM9TFUGvEvSJ0y57tgK9DKhTH/ozRKSM/QwEUIIIcTAr/FVRrtw7ZXrZQrylDaUddg+1vwwbYSEQQ8TIYQQQgz0MFUR7bxLQmV6mYKM0Xa7NnieXtY2VRvK/jxthIRhPiZRMBFCCCHEVApIdRA6GHD1eJnO0vaBNpR5CChCMkEPEyGEEEIM9DBVCaHeJaE6vEwAHiV4mW4zS4Skhx4mQgghhBjoYaoSQr1LQnV4mdCP6TptW2o7VBtFE8kEPUyEEEIIMdDDVCW4sdiBruMM0DbCT4JnaYGfBjvXTy130OxuC20PapOxmCCORmvbXRvSsP5MbRRNJB3mY1IxH5Duf1ev9GdJqdmxd19M+IIkhBACUCmI9Dth9owZs6QpGSr7mtlmBckJNL1zXHe+WdCCafiuuw418wTNFsdjOmK33e41CbnDum+E6E7dlx4mQgghhPADGiE+Tiy2i7bJEOkinkjVwj5MhBBCCDGwDxMhQRxnOIVT1WM+JhXzixLdkhGCTfIIIaS8mTVrVn9/tjtEYx8tLZ3uw3GcP+h/0FFfpVKpH+oXGPqoeDhO5VyLbv4t+jr182czohVyX30NT/EXUUG7x5s1lP5auG4pz6G/vpAdowW67mzXdW/Ooqke674RIse6r2muTMFUpVAwRZNqqwBlhBWgVrpaAeqE0l+L0laAbKKxj/yU8bwwfORINXvmTH+JEJIR153mxmInjxgxYoGfkg7WfSNEd+q+FExVSlihQWXdcd3J/mLXYAWoPRGqABFCCCEkj7jucv2ev9d1nJu7IJYA674Rgh4mkjVpBFNbxBxCCCHRBpW37mP2MXzXXYfMnjGjKxXAMPJ2Hp2wra659MaM4zjv6b9/tUkFjlOsc+iMbu/Ddd0V/mxu5LFcdJPu7SMff0dNTU770HUhjEU11lvSeEJpmhZKk7KMzsi6b4Sgh4lkDQVTRKmUF51H9/bBClAbrAC1kWMFKEAk9qErXvk4D0JInpk9c+aNejKhG0JJYN03QtDDRLImjWDqr5LJA/zFrsEKUDtYASKElCmmUuDNElLdzJox43L9Y9jfjcXOzVEoCaz7Rgh6mEjWdKfQEEIIIYRUKviAnKcPoKz7RojueJg4DhMhhBBCUCkghGjYWoRYGIFFwUQIIYQQtjgghJCOmI9JbJJXpbBJHiGEEAv2YSIk/9BzGz1yes7Rw0QIIYQQiiVC8g9+V7RoWbYY0UvBRAghhBB+CSeEkI4YkUXBRAghhJBcvrwSQkilQw8TIYQQQgz0MBFCSEfoYSKEEEKIgR4mQgjpCD1MhBBCCDHQw0QIIR2hh4kQQgghBnqYCCGkI/QwEUIIIcRADxMhhHSEHiZCCCGEGOhhIoSQjhT9YxIOSIuWEUIIIUDeCZxyyimnnLafEkIIIYQQQgghhBBCCCGEEEIIIYQQQgghhBBCCCGEEEIIIYQQQgghhBBCCCGEEEIIIYQQQgghhBBCCCGEEEIIIYQQQgghhBBCCCGEEEIIIYQQQgghhBBCCCGEEEIIIYQQQgghhBBCCCGEEEIIIYQQQgghhBBCCCGEEEIIIYQQQgghhJAi4/hTQkhurK/tdG27ahupbXNthBBCCCGk8CzTNkPbTG2PantFW96hYCIkd07UdoO2gdqmaMMPdp42QgghhBBSeDbQhg/W+HA9XNvl2iZpI4REgCu1udpu01aHBEIIIYQQUjImaEPd7BmzRAgpKftpww/yJ2aJEEIIIYREge9oQx3tQrNECCkZaHr3mDdLCCGEEEIixCXaIJp2MUuEkKKzgzb8CL9llgghhBBCSNRYou2n3mz3iflTQkjXQKfCZm30MBFCCCGERBNEzUOdLS9QMBGSHfjxoUkeIYQQQgiJJqirIXpeXqBgIiQ7EBFvlTdLCCGEEEIiCOpqPb3Z7kPBRAghhBBCCCFpoGAihBBCCCGEkDRQMBFCCCGEEEJIGiiYCCGEEEIIISQNFEyEEEIIIYQQkgYKJkKyw/GnhBBCCCGkCqBgIoQQQgghhJA0UDARUl18oM217EJtUWOYNpzbd81SYbGvxW3+lHQfuZZiKGe4r/kubyjPOJaA/ZfiHtq/KzmHfbSR7JHrl86K8VwoB8Kek/gtoCyS7Am+G3F9cT0xLReK8e58yjdCCMnIndqe9maLynh/miuovOFBGqywIq1aX7D4u6VSa78sq5LR57w6BOYvdge5ljZSCbbFTXeR4+Rzn7mAyoNUUDAv5aiqBNOsWbPyUXZscA2Dzyu5vtX6zBKkYgyrWgHpzhm3qz/bHeTdGHyOyPOlnARToZHfX7kIpou0fejNdh96mAgpD8Zpw4PqRrOUHXjgv6Ttdm2/RYIF+mRtoa2UlU5UiopducTx8He/bJaU2lIbHq5Vixt3hjuJmvmjz3/jxm4IJ7xIcV2Dff1Q7pCeT3DP8vYyTENnFQP8tkZre90sKTVG277ebJWRTA6fPXOmqy2XZ1RXwfXF77TUz6xSM09bvn9PkST53vg/+7OhJOeMv8KfzRV5N55lltqQ58smZimaFPvdid/fVG+2+qBgIqS8mKAtW+F0gT+9zp8GwcviTG2l+JKGY/7Gmy0qm/lTEsBx1IQchRNe3BAP6YQnKnnBSkmUwZd7/D2ZiHJlqlRMKLBwgvhGRRbPLFLBtMwZP89xnBP8xVCcmHNZcs64W/zFbBEPZjpRdqk/jSKlendWLYz4RUh2oEneUG2HmqWuA6GzuTebE2O1hVVeb9J2rjebFnwlR8Uv3e8dFcMHteHF9Bdt+HKLh/G92pAOUAm2vVOyT2B/ncML6Efa0GwRFRpZB5Fng3NBBRtf9wRUgvBVT9LxpV48QDgf25tgn4+sQ3684OS80v299rkDOS7OHS8gezu5NoKck+QFOJdXtMnfEvw7QMGftUbc1MRyb7rpxHbRJ4ly1g7X1WWspeXmqTfvtcBPSodcE/u+ZSJdWUFTGPvrOeYhtgQpS8iP3yG2l/KHsos0XH8BaVK5xtdRfCUFcm9xb2Sfst6+v8Au44K9XwH7yqb82mVEjm3/VuRvl7SuXtusMU3qkskO97+rOLHYLnoSVv5uGj5yZGfPqDDwNwefO4Jce/t62OXGvs/29cT9sX//8syTNBzvY23pygWw7yWOv7c2OcdMZRf7wvH20yblBsewy5qcD5DfB66plBG7HMp52Nvg7wByrvIsv0qb7CN4TYPnDOy/tyQk3zt5hr46IzGfUuoQkxgg7qqtdB78jcpNuVfGt7v3l2ZF15H7jvvQFYLPBfv+yv3C80fKh1xrKUfybgD2ewvvWrkH9jMESBmXfWCf9vsGyH6Dzx77GOnejcF3nCD7CBIsYyD4LAzbP84D5/CJNuw3+DfiI6aU43yBa4V7EizfOdHVQkII8chVMD2iLefKSBfIJJzkhZju924LJvtlLi9neUnIAxQPTLyA5WGKBzkeTCDsxS8vbbsCIy8S+4Ee9hBFmuSRl5PkwT7+rg3rBNnGPkYYdmVZkL9T0pAHf6e84ILXQc7D3geOG/zbgxXtgnDIBa8Nj6vYLH8x73RBOMlLU66PIPfPBvcmrKxIpUOuOcquLYjs6yv3UMqpHB/Hku2R9qI22b/sD2l2JQH3MFjZCCsjQWQbu+IU3E+m8ivlE3+Xfd3wG0Ne+btxXVDW5Rh5Rwum4Y7rFqz8aLIVTpl+w8HfIu4rKmNyn7GtXenH9XxOm+wrWM5wT8Tr3Fm5wL5wX3AvcNz/04b9Ziq7OB9Byq+kyd+IsipiX/4+IH+H/ZzG9lKuZBnnhQqx5JffA5A02a+UaWwD7Gdz2MeBogKx5GixpJ858Hh3Ck4a2XIQTbhHmd6NNrh2B2mTayXXF9sfq03ulzx/7HuI/dv3C014MS/IswF/itwryW8/F+zyFlwv5RQgbZE2+xiSD8eQMhcs23LO9vMsSLDM4DoAKTNSDuWa4pxxPYLnK+kA5yTlOJ/g78ybYGKTPELKn2naXvBmQ8GDqavgoYcXJh7a8gDEgxUPuhO14aGHhyEesnjIwQBeJMiHBxTy2g8+7EdeAJI/HXiQ4oFqgyaFOCd5gCMPjoMHO9LkYSgPYmC/KHIFYslukoG/D9dF0uRYqMjY2F/ZO/PKlAWucpf7s7mAe4SXJ+4h7gvm05UVpNsvUftFh5c5rr/kx9S+z1J2bVChQSVTyir2h0optsULGsiLHRWMQpCp/Ar4u/D7spHKrpCuAhN9XF1+XHc4RJmf0l1sb7v8/uxyhGcBnlOoEAKIJVScbFAWZD28RNi+q+VCKokoqyizIFPZlX3ZlULcc5QL2d5+Vti/D6mYYjtsk86LjHxYL9jPctkHvGc2OF9cGwH58ZwuGdmKJYBsuOBe87xu92lKB36veCcIuL64P/h92/dLygC8QEDKgf37Db63ZB3KB8ptLvcg+O4MHiPs3SgfCWQdPsqArjY1xnniOWU395eyhuc1wDlgHueDWyXHAvI7Qrr9+40kFEyEFIebteHraq4WVvGGUDpa24HapiAhDfIwlspBEHiVgHRcD0NEFx6keODiAWebPCTDEKGEr63Iaz+wu0LYy0Ne/IV8udsVHgHXUl6IABUMqcCg4ma/8LAsL82C09Rcu8B1U5NyNX2H0CykHRBKxrPUnBwx9fpR53bSLA9eGxCs+GcLyoqp/2izK4DZBqKQsmGXU5h9/4pBV8ovrr0IJKTJvUAZCtu+EODewlOdq3V8BnlCaZobix04fNddDxwxYsRsf013EQ8/Kl+Dvdl2iMiRCiEqgvg9289AlC0pq9mULVSa8RuXcmrfn3RlN1/IszxfwFthC0lcV1tAFZXU3PGTshVLArK7KbUQoin13rjve6mdgncS6Ow3lm493ov5/H2iuVoxEZEiHx1296e2qMlEOmGFd7z8puTjEH4X9sdbfHjEM09+M4SQCqNUYcWf1yYPFsxn07wPD3RsJ19zggTXYV7c7gIedPhKJPtK95JAnqBHS7YV7GXZn12RwbydhnMJ7hMPeOQBYfsIHjOIvb2A/HYa5oPXLHht5FxxDpJXjp3p+JHj0PP+M3bMBW+4sNEXvL4sx2h5+NuD90LA9bHvI65P8L7i2trX3F4Obg+wbOcP5kl3LiBYBoLlKKyMBLHvvyBpsp/Oyq+AZaTbfy+2RZq9/0gya/r0sX6wB3f2jBnLtD3fTY8SrkfYb0h+p7JOlu1rFLyXQMoSrifS5R4gL+YFSRfC9gUkXfJmKrsA+ezjBNcHfw/BZWBvI8cP7hMmIK+9HPzbAI4hf4edtyTAQ5Sae7KbzMJM/vdOnoFpy9yTf+DvqivINbTvgw3uOe6D5JMyJ9j3I3i/sC22wbYCluV+yT7tcmXfn7D12L+cQ9h6OaakdbYPIMcUs/OGYZcxOZ5dBkHwGECOEyxjsg/72uUL8frlBXqYCCkfuupRCoKvkvB84GtO8CGGBxUeKNL8TrCbBeBBh6+zaHaAfeHLaVA0pnvhCFLxxj7DPDcgeG4CvuhiG/sY8OrgYVhIsH9cM/tlgGW7WQa+xOH6oVmGRFqSr7bZio2Sk6VHKQzx3qDJZvAl2lWk3AGUQwHXF+VAygletFjGPUlX/uABlHb9QmdlNYx0ZbMrdLX84lzh7ZVrjr8Xfz/y5tuzUBgK51ESUNnC12o8g6Qpm0ztZxL6lCCP/aUcXjt4UOCRQrp8Xcd2mbzrQXAOKKO4J8FnWbqymyvYv1RgMcU+00U7zQWUSZQv8b5mailQFNAHCX2RxMEkJ5bJ9DPrHXimUkqNq9lm8h91Ulex343BijyeX/CCyHsPv0+UPbkfuNf5uB+2Rx7PiuBzQbyk8h7GOQSfR7k+n/A32Pcf1lXvEkBe/M7Q7FnKvjyX5XcpQgi/N1xrQdKxD7spISGkQiiVhylflW8IJNvCHrR4ieLlgQea5LMrAsBeJ+uxnZ0m4EEvadgO+8a8VCBlXzgXPGwlL8yuLNjpct7BdPtYMLuSKsjx7TzYn50mBNPlfGywvTz8Aa5FuryRBd6kboy/FCR43cSEdGUleD8ln1Rm7PsrZVTusb1P+34E7zeOETy/YLnBstxHWLr7bm+D4wTPX7YLpkv5tZFzsH9r+DvC8kYOeJPy1EcpXdkRC7sXwM4j5cVG7ieus4B7aOftSrlAHnlmwdLdYykfdl5YcHscP1iWgOSzy68cyy6bMJyXnQ/z9rKUI1mGYR92Htvsa1QSbE+T+9aJA8Is9fYPDkSeHDxLQYLXE4Z7EiR4n+S3GkwPKzf2Mu6FHNPeNnjM4Dq5j4KUI6QFyx8+gtrLwXPA/oLbiGG/YQTLmBAsRzb232CvCyuP+SavHiZCSHaUSjAVEzzg7IchIYSQ4oIKZbqKa76wK9826dKLiogmf7ED7pxxu+ZBLJUKEUwigksBziFMHOOcSnle+SKvgolN8gghhBBCqgtUlIORAwHSg9H0SoIXItzNHPUu5vwgy2Z4pI10H3/RFDGbpnmEENKBSvcw2a71Qn/dJIQQ0pF0zZjyTfA4MKSVBe5747b1Z8uNYFO4MC9PMRAvV9AK0TyuFLBJHiElpBqa5BFCCCGElDNskkcIIYQQQgghxYCCiZDsQehNQgghhBBSBVAwEUIIIYQQQkgaKJgIIYQQQgghJA0UTIQQQgghhBCSBgomQrJjobYh3iwhhBBCCIkgQ7XlbUwxCiZCsmOmti21rW+WCCGEEEJI1NhVG+pshJASsKE2DOx2klkihBBCCCFRAh+2U9pONEuEkJLwe22fa4N4IoQQQggh0eExbdO9WUJIqUhoe0/bAm0UTYQQQggh0WCiNrQE2tcsEUJKysHaIJrgaULzPPZpIoQQQggpPrXaTtX2sjY0xZugLa84/pQQkj3wNN2g7cdmSakPtMHrRAghhBBCCs962kZ4s+ppbedpe8cs5REKJkK6D5rlIRrLSG2DkEAIIYQQQgrOCm0zfMOH6wKg1P8HZ9T01wzVp0AAAAAASUVORK5CYII=;" vertex="1" parent="WIyWlLk6GJQsqaUBKTNV-1">
          <mxGeometry x="130" y="250" width="844" height="321" as="geometry" />
        </mxCell>
      </root>
    </mxGraphModel>
  </diagram>
</mxfile>
